<svg width="40" height="40" viewBox="0 0 40 40" fill="none" xmlns="http://www.w3.org/2000/svg">
<circle cx="19.9999" cy="20.0002" r="16.6667" fill="#1F1F1F"/>
<path fill-rule="evenodd" clip-rule="evenodd" d="M30 13.5904C29.2647 13.917 28.4734 14.137 27.6435 14.2363C28.4908 13.7284 29.1414 12.9244 29.4474 11.9665C28.6554 12.4371 27.7761 12.7778 26.8422 12.9624C26.0936 12.1651 25.0263 11.6665 23.8471 11.6665C21.5812 11.6665 19.744 13.5037 19.744 15.7696C19.744 16.0909 19.7807 16.4042 19.8507 16.7048C16.4402 16.5342 13.4171 14.9003 11.3932 12.4178C11.0399 13.0237 10.8379 13.7284 10.8379 14.4803C10.8379 15.9036 11.5612 17.1595 12.6632 17.8954C11.9899 17.8741 11.3579 17.6894 10.8039 17.3821V17.4335C10.8039 19.422 12.2192 21.0799 14.0951 21.4579C13.7511 21.5512 13.3884 21.6018 13.0145 21.6018C12.7498 21.6018 12.4925 21.5758 12.2418 21.5278C12.7638 23.1577 14.2797 24.3443 16.0749 24.3777C14.671 25.4776 12.9018 26.1342 10.9793 26.1342C10.6473 26.1342 10.3206 26.1149 10 26.0762C11.8159 27.2401 13.9724 27.9201 16.2896 27.9201C23.8364 27.9201 27.9635 21.6678 27.9635 16.2462C27.9635 16.0682 27.9601 15.8909 27.9515 15.7156C28.7541 15.1356 29.45 14.413 30 13.5904Z" fill="#FFFCF6"/>
</svg>
